<svg xmlns="http://www.w3.org/2000/svg" xmlns:xlink="http://www.w3.org/1999/xlink" version="1.1" width="1000" height="1000" viewBox="0 0 1000 1000" xml:space="preserve">
<desc>Created with Fabric.js 3.5.0</desc>
<defs>
</defs>
<rect x="0" y="0" width="100%" height="100%" fill="rgba(255,255,255,0)"/>
<g transform="matrix(7.6869 0 0 7.6869 491.9616 491.9616)" id="933223">
<g style="" vector-effect="non-scaling-stroke">
		<g transform="matrix(1 0 0 1 -19 -5.5)" id="Layer_1">
<rect style="stroke: none; stroke-width: 1; stroke-dasharray: none; stroke-linecap: butt; stroke-dashoffset: 0; stroke-linejoin: miter; stroke-miterlimit: 4; is-custom-font: none; font-file-url: none; fill: rgb(255,255,255); fill-rule: nonzero; opacity: 1;" x="-34" y="-41.5" rx="0" ry="0" width="68" height="83"/>
</g>
		<g transform="matrix(1 0 0 1 -19 -5.5)" id="Layer_1">
<rect style="stroke: rgb(36,44,136); stroke-width: 2; stroke-dasharray: none; stroke-linecap: round; stroke-dashoffset: 0; stroke-linejoin: round; stroke-miterlimit: 10; is-custom-font: none; font-file-url: none; fill: none; fill-rule: nonzero; opacity: 1;" x="-34" y="-41.5" rx="0" ry="0" width="68" height="83"/>
</g>
		<g transform="matrix(1 0 0 1 -36 -25)" id="Layer_1">
<path style="stroke: none; stroke-width: 1; stroke-dasharray: none; stroke-linecap: butt; stroke-dashoffset: 0; stroke-linejoin: miter; stroke-miterlimit: 4; is-custom-font: none; font-file-url: none; fill: rgb(131,214,137); fill-rule: nonzero; opacity: 1;" transform=" translate(-28, -39)" d="M 33 46 H 23 c -1.1 0 -2 -0.9 -2 -2 V 34 c 0 -1.1 0.9 -2 2 -2 h 10 c 1.1 0 2 0.9 2 2 v 10 C 35 45.1 34.1 46 33 46 z" stroke-linecap="round"/>
</g>
		<g transform="matrix(1 0 0 1 -36 -5)" id="Layer_1">
<path style="stroke: none; stroke-width: 1; stroke-dasharray: none; stroke-linecap: butt; stroke-dashoffset: 0; stroke-linejoin: miter; stroke-miterlimit: 4; is-custom-font: none; font-file-url: none; fill: rgb(131,214,137); fill-rule: nonzero; opacity: 1;" transform=" translate(-28, -59)" d="M 32.8 66 H 23 c -1.1 0 -2 -0.9 -2 -2 V 54 c 0 -1.1 0.9 -2 2 -2 h 10 c 1.1 0 2 0.9 2 2 v 9.8 C 35 65 34 66 32.8 66 z" stroke-linecap="round"/>
</g>
		<g transform="matrix(1 0 0 1 -36 16)" id="Layer_1">
<path style="stroke: none; stroke-width: 1; stroke-dasharray: none; stroke-linecap: butt; stroke-dashoffset: 0; stroke-linejoin: miter; stroke-miterlimit: 4; is-custom-font: none; font-file-url: none; fill: rgb(131,214,137); fill-rule: nonzero; opacity: 1;" transform=" translate(-28, -80)" d="M 33 87 H 23 c -1.1 0 -2 -0.9 -2 -2 V 75 c 0 -1.1 0.9 -2 2 -2 h 10 c 1.1 0 2 0.9 2 2 v 10 C 35 86.1 34.1 87 33 87 z" stroke-linecap="round"/>
</g>
		<g transform="matrix(1 0 0 1 -36 -25)" id="Layer_1">
<path style="stroke: rgb(36,44,136); stroke-width: 2; stroke-dasharray: none; stroke-linecap: round; stroke-dashoffset: 0; stroke-linejoin: round; stroke-miterlimit: 10; is-custom-font: none; font-file-url: none; fill: none; fill-rule: nonzero; opacity: 1;" transform=" translate(-28, -39)" d="M 33 46 H 23 c -1.1 0 -2 -0.9 -2 -2 V 34 c 0 -1.1 0.9 -2 2 -2 h 10 c 1.1 0 2 0.9 2 2 v 10 C 35 45.1 34.1 46 33 46 z" stroke-linecap="round"/>
</g>
		<g transform="matrix(1 0 0 1 -36 -5)" id="Layer_1">
<path style="stroke: rgb(36,44,136); stroke-width: 2; stroke-dasharray: none; stroke-linecap: round; stroke-dashoffset: 0; stroke-linejoin: round; stroke-miterlimit: 10; is-custom-font: none; font-file-url: none; fill: none; fill-rule: nonzero; opacity: 1;" transform=" translate(-28, -59)" d="M 32.8 66 H 23 c -1.1 0 -2 -0.9 -2 -2 V 54 c 0 -1.1 0.9 -2 2 -2 h 10 c 1.1 0 2 0.9 2 2 v 9.8 C 35 65 34 66 32.8 66 z" stroke-linecap="round"/>
</g>
		<g transform="matrix(1 0 0 1 -36 16)" id="Layer_1">
<path style="stroke: rgb(36,44,136); stroke-width: 2; stroke-dasharray: none; stroke-linecap: round; stroke-dashoffset: 0; stroke-linejoin: round; stroke-miterlimit: 10; is-custom-font: none; font-file-url: none; fill: none; fill-rule: nonzero; opacity: 1;" transform=" translate(-28, -80)" d="M 33 87 H 23 c -1.1 0 -2 -0.9 -2 -2 V 75 c 0 -1.1 0.9 -2 2 -2 h 10 c 1.1 0 2 0.9 2 2 v 10 C 35 86.1 34.1 87 33 87 z" stroke-linecap="round"/>
</g>
		<g transform="matrix(1 0 0 1 -11.5 -1.5)" id="Layer_1">
<path style="stroke: none; stroke-width: 1; stroke-dasharray: none; stroke-linecap: butt; stroke-dashoffset: 0; stroke-linejoin: miter; stroke-miterlimit: 4; is-custom-font: none; font-file-url: none; fill: rgb(36,44,136); fill-rule: nonzero; opacity: 0.2;" transform=" translate(-52.5, -62.5)" d="M 79 101 V 24 H 28 c -1.1 0 -2 0.9 -2 2 v 75 H 79 z" stroke-linecap="round"/>
</g>
		<g transform="matrix(1 0 0 1 1 6.5)" id="Layer_1">
<rect style="stroke: none; stroke-width: 1; stroke-dasharray: none; stroke-linecap: butt; stroke-dashoffset: 0; stroke-linejoin: miter; stroke-miterlimit: 4; is-custom-font: none; font-file-url: none; fill: rgb(255,255,255); fill-rule: nonzero; opacity: 1;" x="-34" y="-41.5" rx="0" ry="0" width="68" height="83"/>
</g>
		<g transform="matrix(1 0 0 1 1 6.5)" id="Layer_1">
<rect style="stroke: rgb(36,44,136); stroke-width: 2; stroke-dasharray: none; stroke-linecap: round; stroke-dashoffset: 0; stroke-linejoin: round; stroke-miterlimit: 10; is-custom-font: none; font-file-url: none; fill: none; fill-rule: nonzero; opacity: 1;" x="-34" y="-41.5" rx="0" ry="0" width="68" height="83"/>
</g>
		<g transform="matrix(1 0 0 1 5 -11)" id="Layer_1">
<line style="stroke: rgb(36,44,136); stroke-width: 2; stroke-dasharray: none; stroke-linecap: round; stroke-dashoffset: 0; stroke-linejoin: round; stroke-miterlimit: 10; is-custom-font: none; font-file-url: none; fill: none; fill-rule: nonzero; opacity: 0.2;" x1="-6" y1="0" x2="6" y2="0"/>
</g>
		<g transform="matrix(1 0 0 1 11 -16)" id="Layer_1">
<line style="stroke: rgb(36,44,136); stroke-width: 2; stroke-dasharray: none; stroke-linecap: round; stroke-dashoffset: 0; stroke-linejoin: round; stroke-miterlimit: 10; is-custom-font: none; font-file-url: none; fill: none; fill-rule: nonzero; opacity: 0.2;" x1="-12" y1="0" x2="12" y2="0"/>
</g>
		<g transform="matrix(1 0 0 1 -15 -13)" id="Layer_1">
<path style="stroke: none; stroke-width: 1; stroke-dasharray: none; stroke-linecap: butt; stroke-dashoffset: 0; stroke-linejoin: miter; stroke-miterlimit: 4; is-custom-font: none; font-file-url: none; fill: rgb(131,214,137); fill-rule: nonzero; opacity: 1;" transform=" translate(-49, -51)" d="M 54 58 H 44 c -1.1 0 -2 -0.9 -2 -2 V 46 c 0 -1.1 0.9 -2 2 -2 h 10 c 1.1 0 2 0.9 2 2 v 10 C 56 57.1 55.1 58 54 58 z" stroke-linecap="round"/>
</g>
		<g transform="matrix(1 0 0 1 -14.4 -12.5)" id="Layer_1">
<polyline style="stroke: rgb(36,44,136); stroke-width: 2; stroke-dasharray: none; stroke-linecap: round; stroke-dashoffset: 0; stroke-linejoin: round; stroke-miterlimit: 10; is-custom-font: none; font-file-url: none; fill: none; fill-rule: nonzero; opacity: 1;" points="-4.3,0.2 -1.4,2.9 4.3,-2.9 "/>
</g>
		<g transform="matrix(1 0 0 1 5 10)" id="Layer_1">
<line style="stroke: rgb(36,44,136); stroke-width: 2; stroke-dasharray: none; stroke-linecap: round; stroke-dashoffset: 0; stroke-linejoin: round; stroke-miterlimit: 10; is-custom-font: none; font-file-url: none; fill: none; fill-rule: nonzero; opacity: 0.2;" x1="-6" y1="0" x2="6" y2="0"/>
</g>
		<g transform="matrix(1 0 0 1 11 4)" id="Layer_1">
<line style="stroke: rgb(36,44,136); stroke-width: 2; stroke-dasharray: none; stroke-linecap: round; stroke-dashoffset: 0; stroke-linejoin: round; stroke-miterlimit: 10; is-custom-font: none; font-file-url: none; fill: none; fill-rule: nonzero; opacity: 0.2;" x1="-12" y1="0" x2="12" y2="0"/>
</g>
		<g transform="matrix(1 0 0 1 -15 7)" id="Layer_1">
<path style="stroke: none; stroke-width: 1; stroke-dasharray: none; stroke-linecap: butt; stroke-dashoffset: 0; stroke-linejoin: miter; stroke-miterlimit: 4; is-custom-font: none; font-file-url: none; fill: rgb(131,214,137); fill-rule: nonzero; opacity: 1;" transform=" translate(-49, -71)" d="M 54 78 H 44 c -1.1 0 -2 -0.9 -2 -2 V 66 c 0 -1.1 0.9 -2 2 -2 h 9.8 c 1.2 0 2.2 1 2.2 2.2 V 76 C 56 77.1 55.1 78 54 78 z" stroke-linecap="round"/>
</g>
		<g transform="matrix(1 0 0 1 -14.4 7.75)" id="Layer_1">
<polyline style="stroke: rgb(36,44,136); stroke-width: 2; stroke-dasharray: none; stroke-linecap: round; stroke-dashoffset: 0; stroke-linejoin: round; stroke-miterlimit: 10; is-custom-font: none; font-file-url: none; fill: none; fill-rule: nonzero; opacity: 1;" points="-4.3,0.15 -1.4,2.85 4.3,-2.85 "/>
</g>
		<g transform="matrix(1 0 0 1 5 30)" id="Layer_1">
<line style="stroke: rgb(36,44,136); stroke-width: 2; stroke-dasharray: none; stroke-linecap: round; stroke-dashoffset: 0; stroke-linejoin: round; stroke-miterlimit: 10; is-custom-font: none; font-file-url: none; fill: none; fill-rule: nonzero; opacity: 0.2;" x1="-6" y1="0" x2="6" y2="0"/>
</g>
		<g transform="matrix(1 0 0 1 11 25)" id="Layer_1">
<line style="stroke: rgb(36,44,136); stroke-width: 2; stroke-dasharray: none; stroke-linecap: round; stroke-dashoffset: 0; stroke-linejoin: round; stroke-miterlimit: 10; is-custom-font: none; font-file-url: none; fill: none; fill-rule: nonzero; opacity: 0.2;" x1="-12" y1="0" x2="12" y2="0"/>
</g>
		<g transform="matrix(1 0 0 1 -15 27)" id="Layer_1">
<path style="stroke: none; stroke-width: 1; stroke-dasharray: none; stroke-linecap: butt; stroke-dashoffset: 0; stroke-linejoin: miter; stroke-miterlimit: 4; is-custom-font: none; font-file-url: none; fill: rgb(131,214,137); fill-rule: nonzero; opacity: 1;" transform=" translate(-49, -91)" d="M 54 98 H 44 c -1.1 0 -2 -0.9 -2 -2 V 86 c 0 -1.1 0.9 -2 2 -2 h 10 c 1.1 0 2 0.9 2 2 v 10 C 56 97.1 55.1 98 54 98 z" stroke-linecap="round"/>
</g>
		<g transform="matrix(1 0 0 1 -15 -13)" id="Layer_1">
<path style="stroke: rgb(36,44,136); stroke-width: 2; stroke-dasharray: none; stroke-linecap: round; stroke-dashoffset: 0; stroke-linejoin: round; stroke-miterlimit: 10; is-custom-font: none; font-file-url: none; fill: none; fill-rule: nonzero; opacity: 1;" transform=" translate(-49, -51)" d="M 54 58 H 44 c -1.1 0 -2 -0.9 -2 -2 V 46 c 0 -1.1 0.9 -2 2 -2 h 10 c 1.1 0 2 0.9 2 2 v 10 C 56 57.1 55.1 58 54 58 z" stroke-linecap="round"/>
</g>
		<g transform="matrix(1 0 0 1 -15 7)" id="Layer_1">
<path style="stroke: rgb(36,44,136); stroke-width: 2; stroke-dasharray: none; stroke-linecap: round; stroke-dashoffset: 0; stroke-linejoin: round; stroke-miterlimit: 10; is-custom-font: none; font-file-url: none; fill: none; fill-rule: nonzero; opacity: 1;" transform=" translate(-49, -71)" d="M 54 78 H 44 c -1.1 0 -2 -0.9 -2 -2 V 66 c 0 -1.1 0.9 -2 2 -2 h 9.8 c 1.2 0 2.2 1 2.2 2.2 V 76 C 56 77.1 55.1 78 54 78 z" stroke-linecap="round"/>
</g>
		<g transform="matrix(1 0 0 1 -15 27)" id="Layer_1">
<path style="stroke: rgb(36,44,136); stroke-width: 2; stroke-dasharray: none; stroke-linecap: round; stroke-dashoffset: 0; stroke-linejoin: round; stroke-miterlimit: 10; is-custom-font: none; font-file-url: none; fill: none; fill-rule: nonzero; opacity: 1;" transform=" translate(-49, -91)" d="M 54 98 H 44 c -1.1 0 -2 -0.9 -2 -2 V 86 c 0 -1.1 0.9 -2 2 -2 h 10 c 1.1 0 2 0.9 2 2 v 10 C 56 97.1 55.1 98 54 98 z" stroke-linecap="round"/>
</g>
		<g transform="matrix(1 0 0 1 12.3 12.25)" id="Layer_1">
<polygon style="stroke: none; stroke-width: 1; stroke-dasharray: none; stroke-linecap: butt; stroke-dashoffset: 0; stroke-linejoin: miter; stroke-miterlimit: 4; is-custom-font: none; font-file-url: none; fill: rgb(36,44,136); fill-rule: nonzero; opacity: 0.2;" points="22.7,-18.65 -11.1,1.25 -22.7,18.65 -1.9,16.85 22.7,2.35 "/>
</g>
		<g transform="matrix(1 0 0 1 18.75 1.95)" id="Layer_1">
<polygon style="stroke: none; stroke-width: 1; stroke-dasharray: none; stroke-linecap: butt; stroke-dashoffset: 0; stroke-linejoin: miter; stroke-miterlimit: 4; is-custom-font: none; font-file-url: none; fill: rgb(255,255,255); fill-rule: nonzero; opacity: 1;" points="28.65,-15.85 -8.95,21.75 -28.65,28.65 -21.75,8.95 15.85,-28.65 "/>
</g>
		<g transform="matrix(0.7071 -0.7071 0.7071 0.7071 22.2218 -1.4422)" id="Layer_1">
<rect style="stroke: none; stroke-width: 1; stroke-dasharray: none; stroke-linecap: butt; stroke-dashoffset: 0; stroke-linejoin: miter; stroke-miterlimit: 4; is-custom-font: none; font-file-url: none; fill: rgb(255,196,8); fill-rule: nonzero; opacity: 1;" x="-26.6" y="-9.05" rx="0" ry="0" width="53.2" height="18.1"/>
</g>
		<g transform="matrix(0.7071 -0.7071 0.7071 0.7071 26.7159 3.0715)" id="Layer_1">
<rect style="stroke: none; stroke-width: 1; stroke-dasharray: none; stroke-linecap: butt; stroke-dashoffset: 0; stroke-linejoin: miter; stroke-miterlimit: 4; is-custom-font: none; font-file-url: none; fill: rgb(36,44,136); fill-rule: nonzero; opacity: 0.2;" x="-26.6" y="-2.65" rx="0" ry="0" width="53.2" height="5.3"/>
</g>
		<g transform="matrix(1 0 0 1 -5.7 26.2)" id="Layer_1">
<polygon style="stroke: none; stroke-width: 1; stroke-dasharray: none; stroke-linecap: butt; stroke-dashoffset: 0; stroke-linejoin: miter; stroke-miterlimit: 4; is-custom-font: none; font-file-url: none; fill: rgb(94,97,163); fill-rule: nonzero; opacity: 1;" points="-1.2,-4.2 -4.2,4.2 4.2,1.2 "/>
</g>
		<g transform="matrix(1 0 0 1 18.75 1.95)" id="Layer_1">
<polygon style="stroke: rgb(36,44,136); stroke-width: 2; stroke-dasharray: none; stroke-linecap: round; stroke-dashoffset: 0; stroke-linejoin: round; stroke-miterlimit: 10; is-custom-font: none; font-file-url: none; fill: none; fill-rule: nonzero; opacity: 1;" points="28.65,-15.85 -8.95,21.75 -28.65,28.65 -21.75,8.95 15.85,-28.65 "/>
</g>
		<g transform="matrix(1 0 0 1 44.6375 -23.9375)" id="Layer_1">
<path style="stroke: none; stroke-width: 1; stroke-dasharray: none; stroke-linecap: butt; stroke-dashoffset: 0; stroke-linejoin: miter; stroke-miterlimit: 4; is-custom-font: none; font-file-url: none; fill: rgb(243,135,126); fill-rule: nonzero; opacity: 1;" transform=" translate(-108.6375, -40.0625)" d="M 111.4 50.1 l 6 -6 c 1.7 -1.7 1.7 -4.4 0 -6 l -6.8 -6.8 c -1.7 -1.7 -4.4 -1.7 -6 0 l -6 6 L 111.4 50.1 z" stroke-linecap="round"/>
</g>
		<g transform="matrix(1 0 0 1 44.6375 -23.9375)" id="Layer_1">
<path style="stroke: rgb(36,44,136); stroke-width: 2; stroke-dasharray: none; stroke-linecap: round; stroke-dashoffset: 0; stroke-linejoin: round; stroke-miterlimit: 10; is-custom-font: none; font-file-url: none; fill: none; fill-rule: nonzero; opacity: 1;" transform=" translate(-108.6375, -40.0625)" d="M 111.4 50.1 l 6 -6 c 1.7 -1.7 1.7 -4.4 0 -6 l -6.8 -6.8 c -1.7 -1.7 -4.4 -1.7 -6 0 l -6 6 L 111.4 50.1 z" stroke-linecap="round"/>
</g>
		<g transform="matrix(1 0 0 1 29.75 -3.75)" id="Layer_1">
<line style="stroke: rgb(36,44,136); stroke-width: 2; stroke-dasharray: none; stroke-linecap: round; stroke-dashoffset: 0; stroke-linejoin: round; stroke-miterlimit: 10; is-custom-font: none; font-file-url: none; fill: none; fill-rule: nonzero; opacity: 1;" x1="-13.150000000000006" y1="13.150000000000002" x2="13.150000000000006" y2="-13.150000000000002"/>
</g>
		<g transform="matrix(1 0 0 1 9.05 16.95)" id="Layer_1">
<line style="stroke: rgb(36,44,136); stroke-width: 2; stroke-dasharray: none; stroke-linecap: round; stroke-dashoffset: 0; stroke-linejoin: round; stroke-miterlimit: 10; is-custom-font: none; font-file-url: none; fill: none; fill-rule: nonzero; opacity: 1;" x1="-3.049999999999997" y1="3.049999999999997" x2="3.049999999999997" y2="-3.049999999999997"/>
</g>
		<g transform="matrix(0.7071 -0.7071 0.7071 0.7071 40.653 -19.8289)" id="Layer_1">
<rect style="stroke: none; stroke-width: 1; stroke-dasharray: none; stroke-linecap: butt; stroke-dashoffset: 0; stroke-linejoin: miter; stroke-miterlimit: 4; is-custom-font: none; font-file-url: none; fill: rgb(255,255,255); fill-rule: nonzero; opacity: 1;" x="-3.7" y="-9.05" rx="0" ry="0" width="7.4" height="18.1"/>
</g>
		<g transform="matrix(0.7071 -0.7071 0.7071 0.7071 40.653 -19.8289)" id="Layer_1">
<rect style="stroke: none; stroke-width: 1; stroke-dasharray: none; stroke-linecap: butt; stroke-dashoffset: 0; stroke-linejoin: miter; stroke-miterlimit: 4; is-custom-font: none; font-file-url: none; fill: rgb(36,44,136); fill-rule: nonzero; opacity: 0.2;" x="-3.7" y="-9.05" rx="0" ry="0" width="7.4" height="18.1"/>
</g>
		<g transform="matrix(0.7071 -0.7071 0.7071 0.7071 40.653 -19.8289)" id="Layer_1">
<rect style="stroke: rgb(36,44,136); stroke-width: 2; stroke-dasharray: none; stroke-linecap: round; stroke-dashoffset: 0; stroke-linejoin: round; stroke-miterlimit: 10; is-custom-font: none; font-file-url: none; fill: none; fill-rule: nonzero; opacity: 1;" x="-3.7" y="-9.05" rx="0" ry="0" width="7.4" height="18.1"/>
</g>
</g>
</g>
</svg>